<svg xmlns="http://www.w3.org/2000/svg" viewBox="0 0 100 100">
  <defs>
    <linearGradient id="g" x1="0%" y1="0%" x2="100%" y2="100%">
      <stop offset="0%" stop-color="#ff9f5a"/>
      <stop offset="50%" stop-color="#ff6a6a"/>
      <stop offset="100%" stop-color="#c22e93"/>
    </linearGradient>
  </defs>
  <rect width="100" height="100" rx="22" fill="url(#g)"/>
  <path d="M32 26 H68 V32 C68 40 60 46 54 50 C60 54 68 60 68 68 V74 H32 V68 C32 60 40 54 46 50 C40 46 32 40 32 32 Z"
        fill="none" stroke="#fff" stroke-width="5" stroke-linejoin="round"/>
  <path d="M38 32 C38 38 44 43 50 47 C56 43 62 38 62 32 Z" fill="#fff" opacity="0.9"/>
  <path d="M38 68 C38 62 44 57 50 53 C56 57 62 62 62 68 Z" fill="#fff"/>
</svg>
